<svg width="2353" height="677" viewBox="0 0 2353 677" fill="none" xmlns="http://www.w3.org/2000/svg">
<path d="M958.193 412.148C951.631 414.883 945.023 417.344 938.369 419.531C931.715 421.719 924.834 423.587 917.725 425.137C910.615 426.777 903.096 428.008 895.166 428.828C887.327 429.648 878.896 430.059 869.873 430.059C850.732 430.059 833.096 428.008 816.963 423.906C800.921 419.805 787.067 413.652 775.4 405.449C763.825 397.155 754.801 386.855 748.33 374.551C741.859 362.155 738.623 347.708 738.623 331.211C738.623 314.714 741.859 300.312 748.33 288.008C754.801 275.612 763.825 265.312 775.4 257.109C787.067 248.815 800.921 242.617 816.963 238.516C833.096 234.414 850.732 232.363 869.873 232.363C878.896 232.363 887.327 232.773 895.166 233.594C903.096 234.414 910.615 235.645 917.725 237.285C924.834 238.835 931.715 240.703 938.369 242.891C945.023 245.078 951.631 247.539 958.193 250.273V295.938C952.998 293.112 947.529 290.332 941.787 287.598C936.045 284.772 929.71 282.266 922.783 280.078C915.856 277.799 908.245 275.977 899.951 274.609C891.657 273.151 882.314 272.422 871.924 272.422C855.973 272.422 842.712 274.062 832.139 277.344C821.657 280.625 813.271 285 806.982 290.469C800.693 295.938 796.273 302.227 793.721 309.336C791.169 316.354 789.893 323.646 789.893 331.211C789.893 336.224 790.439 341.191 791.533 346.113C792.627 350.944 794.45 355.547 797.002 359.922C799.554 364.206 802.881 368.171 806.982 371.816C811.084 375.462 816.188 378.607 822.295 381.25C828.402 383.893 835.511 385.99 843.623 387.539C851.826 388.997 861.26 389.727 871.924 389.727C882.314 389.727 891.657 389.089 899.951 387.812C908.245 386.445 915.856 384.668 922.783 382.48C929.71 380.293 936.045 377.832 941.787 375.098C947.529 372.272 952.998 369.401 958.193 366.484V412.148ZM1217.78 331.211C1217.78 347.344 1214.82 361.608 1208.9 374.004C1202.97 386.309 1194.5 396.608 1183.47 404.902C1172.44 413.197 1159.04 419.486 1143.27 423.77C1127.6 427.962 1109.96 430.059 1090.36 430.059C1070.77 430.059 1053.04 427.962 1037.18 423.77C1021.41 419.486 1007.97 413.197 996.846 404.902C985.727 396.608 977.159 386.309 971.143 374.004C965.128 361.608 962.12 347.344 962.12 331.211C962.12 315.078 965.128 300.859 971.143 288.555C977.159 276.159 985.727 265.814 996.846 257.52C1007.97 249.225 1021.41 242.982 1037.18 238.789C1053.04 234.505 1070.77 232.363 1090.36 232.363C1109.96 232.363 1127.6 234.505 1143.27 238.789C1159.04 242.982 1172.44 249.225 1183.47 257.52C1194.5 265.814 1202.97 276.159 1208.9 288.555C1214.82 300.859 1217.78 315.078 1217.78 331.211ZM1166.51 331.211C1166.51 324.193 1165.38 317.22 1163.1 310.293C1160.91 303.275 1156.94 296.986 1151.2 291.426C1145.55 285.866 1137.8 281.354 1127.96 277.891C1118.12 274.427 1105.58 272.695 1090.36 272.695C1080.15 272.695 1071.18 273.516 1063.43 275.156C1055.68 276.706 1048.98 278.893 1043.33 281.719C1037.68 284.544 1032.94 287.871 1029.11 291.699C1025.28 295.436 1022.23 299.492 1019.95 303.867C1017.67 308.151 1016.03 312.663 1015.03 317.402C1014.12 322.051 1013.66 326.654 1013.66 331.211C1013.66 335.859 1014.12 340.553 1015.03 345.293C1016.03 350.033 1017.67 354.59 1019.95 358.965C1022.23 363.249 1025.28 367.259 1029.11 370.996C1032.94 374.733 1037.68 378.014 1043.33 380.84C1048.98 383.574 1055.68 385.762 1063.43 387.402C1071.18 388.952 1080.15 389.727 1090.36 389.727C1105.58 389.727 1118.12 387.995 1127.96 384.531C1137.8 381.068 1145.55 376.556 1151.2 370.996C1156.94 365.436 1160.91 359.193 1163.1 352.266C1165.38 345.247 1166.51 338.229 1166.51 331.211ZM1463.29 330.938C1463.29 342.969 1461.97 353.678 1459.33 363.066C1456.68 372.363 1452.95 380.475 1448.12 387.402C1443.38 394.329 1437.64 400.208 1430.89 405.039C1424.24 409.87 1416.81 413.743 1408.61 416.66C1400.4 419.577 1391.56 421.719 1382.08 423.086C1372.6 424.362 1362.71 425 1352.41 425H1233.19V237.148H1352.14C1362.44 237.148 1372.33 237.832 1381.81 239.199C1391.29 240.475 1400.13 242.572 1408.33 245.488C1416.63 248.405 1424.15 252.279 1430.89 257.109C1437.64 261.849 1443.38 267.728 1448.12 274.746C1452.95 281.673 1456.68 289.785 1459.33 299.082C1461.97 308.379 1463.29 318.997 1463.29 330.938ZM1412.16 330.938C1412.16 321.914 1410.97 314.076 1408.61 307.422C1406.33 300.768 1402.59 295.299 1397.39 291.016C1392.29 286.641 1385.59 283.405 1377.3 281.309C1369 279.121 1358.89 278.027 1346.94 278.027H1283.92V384.121H1346.94C1358.89 384.121 1369 383.073 1377.3 380.977C1385.59 378.789 1392.29 375.508 1397.39 371.133C1402.59 366.667 1406.33 361.107 1408.61 354.453C1410.97 347.799 1412.16 339.961 1412.16 330.938ZM1688.29 415.703C1672.89 420.807 1657.49 424.453 1642.08 426.641C1626.77 428.919 1611.09 430.059 1595.05 430.059C1574.54 430.059 1556.27 427.871 1540.23 423.496C1524.28 419.03 1510.83 412.604 1499.89 404.219C1488.96 395.833 1480.62 385.579 1474.88 373.457C1469.13 361.335 1466.26 347.617 1466.26 332.305C1466.26 318.086 1469.13 304.915 1474.88 292.793C1480.71 280.579 1488.91 270.007 1499.48 261.074C1510.15 252.051 1523 245.033 1538.04 240.02C1553.08 234.915 1569.85 232.363 1588.35 232.363C1605.4 232.363 1620.98 234.688 1635.11 239.336C1649.33 243.893 1661.5 250.684 1671.61 259.707C1681.82 268.73 1689.71 279.85 1695.27 293.066C1700.92 306.283 1703.74 321.504 1703.74 338.73V351.309H1518.63C1520.27 357.233 1522.95 362.656 1526.69 367.578C1530.52 372.5 1535.67 376.693 1542.14 380.156C1548.61 383.62 1556.54 386.309 1565.93 388.223C1575.41 390.137 1586.71 391.094 1599.84 391.094C1609.13 391.094 1618.25 390.547 1627.18 389.453C1636.11 388.268 1644.45 386.764 1652.2 384.941C1659.95 383.027 1666.92 380.931 1673.12 378.652C1679.41 376.374 1684.47 374.095 1688.29 371.816V415.703ZM1653.29 314.121C1652.84 309.473 1651.42 304.688 1649.06 299.766C1646.78 294.753 1643.13 290.241 1638.12 286.23C1633.1 282.22 1626.54 278.939 1618.43 276.387C1610.32 273.743 1600.2 272.422 1588.08 272.422C1576.69 272.422 1566.84 273.835 1558.55 276.66C1550.25 279.486 1543.28 282.995 1537.63 287.188C1532.07 291.38 1527.74 295.892 1524.64 300.723C1521.54 305.553 1519.54 310.02 1518.63 314.121H1653.29ZM1930.11 301.27C1930.11 310.658 1928.74 319.316 1926.01 327.246C1923.27 335.085 1918.85 341.875 1912.75 347.617C1906.73 353.268 1898.89 357.689 1889.23 360.879C1879.57 364.069 1867.81 365.664 1853.96 365.664H1769.74V425H1719.02V237.148H1853.96C1867.81 237.148 1879.57 238.743 1889.23 241.934C1898.89 245.033 1906.73 249.453 1912.75 255.195C1918.85 260.846 1923.27 267.591 1926.01 275.43C1928.74 283.268 1930.11 291.882 1930.11 301.27ZM1878.84 302.09C1878.84 297.715 1878.2 293.978 1876.93 290.879C1875.74 287.689 1873.74 285.091 1870.91 283.086C1868.09 281.081 1864.39 279.622 1859.84 278.711C1855.28 277.708 1849.67 277.207 1843.02 277.207H1769.74V325.605H1843.02C1849.67 325.605 1855.28 325.241 1859.84 324.512C1864.39 323.691 1868.09 322.37 1870.91 320.547C1873.74 318.633 1875.74 316.172 1876.93 313.164C1878.2 310.156 1878.84 306.465 1878.84 302.09ZM1941.42 425V237.148H1992.14V425H1941.42ZM2125.54 278.027V425H2074.82V278.027H1995.11V237.148H2205.39V278.027H2125.54Z" fill="white"/>
<g opacity="0.16">
<path d="M517.747 179.132C531.062 192.447 531.063 214.035 517.748 227.351C504.433 240.666 482.844 240.666 469.528 227.351L385.357 143.181C359.192 117.016 316.771 117.016 290.605 143.181L206.857 226.928C193.776 240.01 172.565 240.01 159.483 226.928C146.402 213.846 146.402 192.636 159.483 179.555L291.451 47.5869C317.616 21.422 360.038 21.422 386.203 47.5869L517.747 179.132ZM518.171 450.262C531.252 463.344 531.252 484.553 518.171 497.635L386.203 629.603C360.038 655.767 317.616 655.767 291.451 629.603L159.906 498.058C146.591 484.742 146.591 463.154 159.906 449.839C173.222 436.523 194.81 436.523 208.126 449.839L292.297 534.009C318.462 560.174 360.884 560.174 387.049 534.009L470.797 450.262C483.879 437.18 505.089 437.18 518.171 450.262Z" fill="#CBCBCB"/>
<path d="M517.747 179.132C531.062 192.447 531.063 214.035 517.748 227.351C504.433 240.666 482.844 240.666 469.528 227.351L385.357 143.181C359.192 117.016 316.771 117.016 290.605 143.181L206.857 226.928C193.776 240.01 172.565 240.01 159.483 226.928C146.402 213.846 146.402 192.636 159.483 179.555L291.451 47.5869C317.616 21.422 360.038 21.422 386.203 47.5869L517.747 179.132ZM518.171 450.262C531.252 463.344 531.252 484.553 518.171 497.635L386.203 629.603C360.038 655.767 317.616 655.767 291.451 629.603L159.906 498.058C146.591 484.742 146.591 463.154 159.906 449.839C173.222 436.523 194.81 436.523 208.126 449.839L292.297 534.009C318.462 560.174 360.884 560.174 387.049 534.009L470.797 450.262C483.879 437.18 505.089 437.18 518.171 450.262Z" stroke="#FFC300"/>
</g>
<path d="M173.707 154.016C190.147 137.576 216.801 137.576 233.24 154.016C249.68 170.455 249.68 197.109 233.24 213.549L149.07 297.72C126.029 320.761 126.029 358.117 149.069 381.158L232.817 464.905C249.023 481.111 249.023 507.387 232.817 523.593C216.611 539.799 190.336 539.799 174.13 523.593L42.1631 391.626C12.8738 362.337 12.8738 314.849 42.1631 285.56L173.707 154.016ZM444.837 153.593C461.043 137.387 487.318 137.387 503.524 153.593L635.491 285.56C664.781 314.849 664.781 362.337 635.491 391.626L503.947 523.17C487.508 539.61 460.854 539.61 444.414 523.17C427.974 506.73 427.974 480.076 444.414 463.637L528.584 379.466C551.625 356.425 551.626 319.068 528.585 296.027L444.837 212.28C428.631 196.074 428.631 169.799 444.837 153.593Z" fill="white" stroke="url(#paint0_linear_551_497)" stroke-width="16"/>
<defs>
<linearGradient id="paint0_linear_551_497" x1="338.827" y1="135.562" x2="338.827" y2="541.623" gradientUnits="userSpaceOnUse">
<stop stop-color="#FFC300"/>
<stop offset="0.480769"/>
<stop offset="1" stop-color="#FFC300"/>
</linearGradient>
</defs>
</svg>
